#N canvas 448 269 619 328 10;
#X msg 161 195 \; pd dsp 1;
#X obj 161 173 loadbang;
#X obj 247 24 notein;
#X obj 247 51 pack f f;
#X obj 62 63 bng 15 250 50 0 empty empty LOAD_INSTRUMENT 17 7 0 10
-258113 -1 -1;
#X msg 61 216 initialize;
#X obj 37 163 bng 15 250 50 0 empty empty empty 17 7 0 10 -262144 -1
-1;
#X obj 62 164 textfile;
#X obj 16 138 delay 1;
#X msg 108 89 rewind;
#X obj 61 191 delay 100;
#X obj 62 34 loadbang;
#X obj 116 253 sampleplayer~;
#X obj 247 222 pack 0 0 0;
#X obj 247 84 poly 64 0;
#X obj 304 133 route 0;
#X obj 304 162 bng 15 250 50 0 empty empty empty 17 7 0 10 -262144
-1 -1;
#X obj 336 162 bng 15 250 50 0 empty empty empty 17 7 0 10 -262144
-1 -1;
#X msg 336 182 128;
#X msg 304 182 0;
#X msg 62 115 read instrument.txt cr;
#X obj 116 287 dac~;
#X msg 142 148 reset;
#X obj 142 170;
#X floatatom 375 110 5 0 0 0 - - -, f 5;
#X msg 332 46 clear;
#X msg 475 121 44 127;
#X floatatom 423 110 5 0 0 0 - - -, f 5;
#X obj 422 80 print midi-in;
#X connect 1 0 0 0;
#X connect 2 0 3 0;
#X connect 2 1 3 1;
#X connect 3 0 14 0;
#X connect 3 0 28 0;
#X connect 4 0 20 0;
#X connect 4 0 8 0;
#X connect 4 0 9 0;
#X connect 5 0 12 0;
#X connect 6 0 7 0;
#X connect 7 0 6 0;
#X connect 7 0 12 0;
#X connect 7 1 10 0;
#X connect 8 0 7 0;
#X connect 9 0 7 0;
#X connect 10 0 5 0;
#X connect 11 0 4 0;
#X connect 12 0 21 0;
#X connect 12 1 21 1;
#X connect 13 0 12 0;
#X connect 14 0 13 0;
#X connect 14 1 13 1;
#X connect 14 1 24 0;
#X connect 14 2 15 0;
#X connect 14 2 27 0;
#X connect 15 0 16 0;
#X connect 15 1 17 0;
#X connect 16 0 19 0;
#X connect 17 0 18 0;
#X connect 18 0 13 2;
#X connect 19 0 13 2;
#X connect 20 0 7 0;
#X connect 22 0 12 0;
#X connect 22 0 23 0;
#X connect 25 0 14 0;
#X connect 26 0 14 0;
