#N canvas 1029 278 1280 684 10;
#X obj 16 222 sampleplayer~;
#X text 93 164 triple (voice/pitch/velocity) -- like output from [poly]
object -- triggers note play/stop;
#X msg 27 94 initialize;
#X text 23 75 load all samples and get sampler ready for action;
#X obj 16 254 dac~;
#X msg 28 167 2 43 127;
#X msg 38 187 2 43 0;
#X msg 480 149 \; pd dsp 1;
#X obj 480 127 loadbang;
#X msg 16 36 addsample 43 sample_43.wav 186715 552028;
#X text 15 15 assign a wavefile to id 43 w/ a loop expressed in frames
;
#X msg 76 123 1 5052 127;
#X msg 97 145 1 5052 0;
#X msg 38 57 addsample 5052 instruments/burea/4060.wav 22178 66150
;
#X msg 189 109 load instruments/burea/instrument.txt;
#X msg 175 143 3 4060 127;
#X connect 0 0 4 0;
#X connect 0 1 4 1;
#X connect 2 0 0 0;
#X connect 5 0 0 0;
#X connect 6 0 0 0;
#X connect 8 0 7 0;
#X connect 9 0 0 0;
#X connect 11 0 0 0;
#X connect 12 0 0 0;
#X connect 13 0 0 0;
#X connect 14 0 0 0;
#X connect 15 0 0 0;
